<?xml version="1.0" encoding="UTF-8"?>
<svg version="1.1" xmlns="http://www.w3.org/2000/svg" width="500" height="500">
<path d="M0 0 C165 0 330 0 500 0 C500 165 500 330 500 500 C335 500 170 500 0 500 C0 335 0 170 0 0 Z " fill="#FEFEFE" transform="translate(0,0)"/>
<path d="M0 0 C1.010625 0.80695313 2.02125 1.61390625 3.0625 2.4453125 C22.66313302 18.38671678 38.70304134 36.93200542 51 59 C51.3707666 59.6487207 51.7415332 60.29744141 52.12353516 60.96582031 C61.06424839 76.65301976 67.65004683 93.47287161 72 111 C72.27457031 112.06476563 72.54914063 113.12953125 72.83203125 114.2265625 C78.6697904 138.78541134 80.15775261 168.36898958 74 193 C51.23 193 28.46 193 5 193 C5 204.22 5 215.44 5 227 C24.47 227 43.94 227 64 227 C58.61882168 253.90589158 38.26812311 279.39116466 19.54736328 298.41748047 C18.17501211 299.8210116 16.8331577 301.25421894 15.49609375 302.69140625 C4.68155916 314.09149939 -8.42171618 323.30444061 -22.10644531 330.93945312 C-24.02929011 332.01640488 -25.93162613 333.12504874 -27.8359375 334.234375 C-70.39818865 358.44237271 -124.43998581 364.91246765 -171.6940918 352.69238281 C-215.39622679 340.60377321 -215.39622679 340.60377321 -228 328 C-228.24609566 326.17654991 -228.24609566 326.17654991 -228.24050903 323.92514038 C-228.24325836 323.07256149 -228.24600769 322.2199826 -228.24884033 321.34156799 C-228.2380545 319.93571693 -228.2380545 319.93571693 -228.22705078 318.50146484 C-228.22734283 317.51606216 -228.22763489 316.53065948 -228.22793579 315.51539612 C-228.22653864 312.24715472 -228.21095927 308.97913924 -228.1953125 305.7109375 C-228.19158374 303.44935226 -228.18873612 301.18776541 -228.18673706 298.92617798 C-228.17908981 292.96504276 -228.15943194 287.00400453 -228.1373291 281.04290771 C-228.11689417 274.96351433 -228.10774038 268.88410531 -228.09765625 262.8046875 C-228.07618709 250.86974898 -228.042038 238.93488255 -228 227 C-222.06 227 -216.12 227 -210 227 C-210 209.18 -210 191.36 -210 173 C-193.17 173 -176.34 173 -159 173 C-159 190.82 -159 208.64 -159 227 C-143.82 227 -128.64 227 -113 227 C-112.12239819 204.18235302 -117.18889004 187.75440079 -125.29269409 166.77217102 C-128.70020014 157.910177 -131.89007941 148.9782997 -135.04296875 140.0234375 C-135.30163727 139.2889633 -135.56030579 138.5544891 -135.82681274 137.7977581 C-137.13620931 134.07789974 -138.44352392 130.35731412 -139.74969482 126.63632202 C-142.02419452 120.15834902 -144.31074351 113.68464137 -146.60030556 107.21197891 C-147.28455897 105.27635844 -147.96734027 103.34022351 -148.64994812 101.40402222 C-149.06235245 100.23710846 -149.47475677 99.0701947 -149.8996582 97.86791992 C-150.43802055 96.34251839 -150.43802055 96.34251839 -150.98725891 94.78630066 C-151.65578566 92.9470186 -152.3700296 91.12364089 -153.13127136 89.320755 C-154 87 -154 87 -154 84 C-155.65 84 -157.3 84 -159 84 C-159 101.16 -159 118.32 -159 136 C-175.83 136 -192.66 136 -210 136 C-210 118.51 -210 101.02 -210 83 C-225.18 83 -240.36 83 -256 83 C-256 125.24 -256 167.48 -256 211 C-260.62 211 -265.24 211 -270 211 C-270 238.06 -270 265.12 -270 293 C-287.95752461 275.04247539 -300.43812265 253.4027983 -310 230 C-310.27972656 229.3188916 -310.55945313 228.6377832 -310.84765625 227.93603516 C-329.49087925 181.58691132 -327.06226893 126.55802572 -308.21289062 80.77978516 C-293.60353782 47.29707763 -270.59762938 17.54036115 -241 -4 C-240.43651855 -4.41314453 -239.87303711 -4.82628906 -239.29248047 -5.25195312 C-168.94931639 -56.16854221 -67.9380452 -54.83043322 0 0 Z " fill="#282828" transform="translate(373,92)"/>
<path d="M0 0 C16.17 0 32.34 0 49 0 C62.5 45 62.5 45 63.25048828 47.50170898 C63.74880091 49.16269697 64.24717298 50.82366712 64.74560547 52.48461914 C66.02191874 56.73802284 67.29709005 60.99176373 68.5703125 65.24609375 C69.81802451 69.41434727 71.06886445 73.58164751 72.32275391 77.74804688 C72.76085381 79.20480013 73.19808687 80.66181449 73.63427734 82.11914062 C74.19057364 83.97619526 74.75136393 85.83190204 75.3125 87.6875 C75.77076172 89.20923828 75.77076172 89.20923828 76.23828125 90.76171875 C76.79729552 92.9444946 76.79729552 92.9444946 78 94 C78.27972656 92.96746094 78.55945313 91.93492187 78.84765625 90.87109375 C83.07116035 75.40767704 87.70690256 60.07389304 92.63061523 44.81933594 C95.89335325 34.70768845 98.87941738 24.54393829 101.69140625 14.29736328 C101.9646875 13.3020459 102.23796875 12.30672852 102.51953125 11.28125 C102.75776611 10.40533203 102.99600098 9.52941406 103.24145508 8.62695312 C104.0790116 5.72637115 105.04528137 2.8641559 106 0 C121.51 0 137.02 0 153 0 C150.74984658 10.12569039 150.74984658 10.12569039 149.23852539 14.41308594 C148.7290612 15.87018478 148.7290612 15.87018478 148.20930481 17.35671997 C147.65903877 18.90490921 147.65903877 18.90490921 147.09765625 20.484375 C146.70797165 21.59344208 146.31828705 22.70250916 145.91679382 23.84518433 C144.6372287 27.48197899 143.35002658 31.11601707 142.0625 34.75 C141.39211648 36.64969143 140.72254075 38.54966623 140.05304527 40.44967079 C132.92786297 60.66810584 125.71285422 80.85469163 118.44555664 101.02246094 C117.70838013 103.0696197 116.97131716 105.11681936 116.234375 107.1640625 C115.88273788 108.14024536 115.53110077 109.11642822 115.16880798 110.12219238 C112.20238261 118.38162937 109.32144538 126.66993842 106.48675537 134.97549438 C106.17433899 135.88383026 105.86192261 136.79216614 105.54003906 137.72802734 C105.26581116 138.53122406 104.99158325 139.33442078 104.70904541 140.16195679 C104 142 104 142 103 143 C101.34261557 143.09346915 99.68125356 143.11744977 98.02124023 143.11352539 C96.96021591 143.11344986 95.89919159 143.11337433 94.80601501 143.11329651 C93.651866 143.10813522 92.49771698 143.10297394 91.30859375 143.09765625 C90.13361832 143.0962413 88.95864288 143.09482635 87.74806213 143.09336853 C83.97784936 143.08774992 80.20769496 143.07519426 76.4375 143.0625 C73.88867273 143.0574874 71.33984453 143.05292408 68.79101562 143.04882812 C62.52732367 143.03777444 56.26366601 143.02101821 50 143 C47.3322362 136.45660419 44.83064375 129.87730133 42.48828125 123.2109375 C42.16286346 122.29028503 41.83744568 121.36963257 41.50216675 120.42108154 C40.43704309 117.40638857 39.37478061 114.39069581 38.3125 111.375 C37.55986778 109.24325052 36.80701551 107.11157872 36.05395508 104.97998047 C34.48728348 100.54489059 32.92156136 96.10946717 31.35644531 91.67382812 C28.35783258 83.17811911 25.3482449 74.68630721 22.33837891 66.19458008 C20.91238902 62.17139837 19.4875821 58.14780118 18.06396484 54.1237793 C15.1068589 45.76567001 12.14877188 37.40800797 9.16667175 29.05877686 C8.01959379 25.84608053 6.87584151 22.632206 5.73257446 19.41815186 C5.20822427 17.94704091 4.68219914 16.47652575 4.15438843 15.00665283 C3.44116967 13.02022748 2.73360298 11.03187698 2.02734375 9.04296875 C1.63281006 7.93977295 1.23827637 6.83657715 0.83178711 5.69995117 C0 3 0 3 0 0 Z " fill="#FDFDFD" transform="translate(235,176)"/>
<path d="M0 0 C2.09375 0.44140625 2.09375 0.44140625 4.65625 1.87890625 C6.81568187 5.72832827 6.95897074 9.13827302 6.09375 13.44140625 C4.09676801 16.49928492 2.73966327 18.01001769 -0.84375 18.94921875 C-3.08882413 19.14481233 -4.73651372 19.05820628 -6.90625 18.44140625 C-10.16557425 15.58949753 -11.64570496 13.69202244 -12.53125 9.44140625 C-10.99752575 2.07952983 -7.20262659 -0.56420575 0 0 Z " fill="#F2F2F2" transform="translate(292.90625,335.55859375)"/>
<path d="M0 0 C21.12 0 42.24 0 64 0 C64 0.99 64 1.98 64 3 C42.88 3 21.76 3 0 3 C0 2.01 0 1.02 0 0 Z " fill="#FFFFFF" transform="translate(103,156)"/>
<path d="M0 0 C9 0 9 0 12 2 C12.42905061 5.94726562 12.08466413 8.61242079 10 12 C10.66 12.61875 11.32 13.2375 12 13.875 C14 16 14 16 14 18 C11.75 18.3125 11.75 18.3125 9 18 C6.6875 15.5 6.6875 15.5 5 13 C4.67 14.65 4.34 16.3 4 18 C2.68 18 1.36 18 0 18 C0 12.06 0 6.12 0 0 Z " fill="#F9F9F9" transform="translate(239,336)"/>
<path d="M0 0 C9.625 -0.25 9.625 -0.25 13 2 C13.3125 5.5 13.3125 5.5 13 9 C11 11 11 11 7.875 11.125 C6.92625 11.08375 5.9775 11.0425 5 11 C5 13.31 5 15.62 5 18 C3.35 18 1.7 18 0 18 C0 12.06 0 6.12 0 0 Z " fill="#EBEBEB" transform="translate(208,336)"/>
<path d="M0 0 C1.32 0 2.64 0 4 0 C4 2.31 4 4.62 4 7 C5.98 7 7.96 7 10 7 C10 4.69 10 2.38 10 0 C11.32 0 12.64 0 14 0 C14 5.94 14 11.88 14 18 C12.68 18 11.36 18 10 18 C10 15.69 10 13.38 10 11 C8.02 11 6.04 11 4 11 C4 13.31 4 15.62 4 18 C2.68 18 1.36 18 0 18 C0 12.06 0 6.12 0 0 Z " fill="#FBFBFB" transform="translate(173,336)"/>
<path d="M0 0 C3.63 0 7.26 0 11 0 C11 1.32 11 2.64 11 4 C9.02 4 7.04 4 5 4 C5 4.99 5 5.98 5 7 C6.98 7 8.96 7 11 7 C11 8.32 11 9.64 11 11 C9.02 11 7.04 11 5 11 C5 11.99 5 12.98 5 14 C6.98 14 8.96 14 11 14 C11 15.32 11 16.64 11 18 C7.37 18 3.74 18 0 18 C0 12.06 0 6.12 0 0 Z " fill="#E5E5E5" transform="translate(224,336)"/>
<path d="M0 0 C1.65 0 3.3 0 5 0 C5.99 3.3 6.98 6.6 8 10 C8.66 10 9.32 10 10 10 C10.12375 9.0925 10.2475 8.185 10.375 7.25 C10.92109677 4.41029677 11.57263803 2.47409409 13 0 C14.65 0 16.3 0 18 0 C17.02216461 2.62550296 16.0427937 5.25041505 15.0625 7.875 C14.78470703 8.62136719 14.50691406 9.36773437 14.22070312 10.13671875 C12.11328125 15.7734375 12.11328125 15.7734375 11 18 C9.68 18 8.36 18 7 18 C5.82887054 15.37690901 4.66294036 12.75171858 3.5 10.125 C3.16613281 9.37863281 2.83226562 8.63226563 2.48828125 7.86328125 C2.17246094 7.14785156 1.85664063 6.43242187 1.53125 5.6953125 C1.23798828 5.03547363 0.94472656 4.37563477 0.64257812 3.69580078 C0 2 0 2 0 0 Z " fill="#F1F1F1" transform="translate(262,336)"/>
<path d="M0 0 C2.25 -0.25 2.25 -0.25 5 0 C7.3125 2 7.3125 2 9 4 C9.391875 3.34 9.78375 2.68 10.1875 2 C10.785625 1.34 11.38375 0.68 12 0 C14.61328125 -0.125 14.61328125 -0.125 17 0 C16.65066406 0.54527344 16.30132812 1.09054687 15.94140625 1.65234375 C12.56295447 7.25119443 11.31092785 11.47051512 11 18 C9.35 18 7.7 18 6 18 C5.98582031 17.3709375 5.97164062 16.741875 5.95703125 16.09375 C5.58839741 9.47826706 3.99062213 5.27174436 0 0 Z " fill="#EDEDED" transform="translate(189,336)"/>
<path d="M0 0 C3.96 0 7.92 0 12 0 C12 0.99 12 1.98 12 3 C10.68 3 9.36 3 8 3 C8 7.95 8 12.9 8 18 C6.68 18 5.36 18 4 18 C4 13.05 4 8.1 4 3 C2.68 3 1.36 3 0 3 C0 2.01 0 1.02 0 0 Z " fill="#FFFFFF" transform="translate(316,336)"/>
<path d="M0 0 C1.32 0 2.64 0 4 0 C4 4.62 4 9.24 4 14 C5.98 14 7.96 14 10 14 C10 15.32 10 16.64 10 18 C6.7 18 3.4 18 0 18 C0 12.06 0 6.12 0 0 Z " fill="#F9F9F9" transform="translate(303,336)"/>
<path d="M0 0 C2.5 0.25 2.5 0.25 4.5 2.25 C3.92307692 8.82692308 3.92307692 8.82692308 2.5 10.25 C0.0625 10.4375 0.0625 10.4375 -2.5 10.25 C-4.5 8.25 -4.5 8.25 -4.75 5.25 C-4.43608753 1.48305032 -3.83691092 0.38369109 0 0 Z " fill="#2C2C2C" transform="translate(290.5,339.75)"/>
<path d="M0 0 C2.125 0.375 2.125 0.375 4 1 C2.02 1.99 2.02 1.99 0 3 C0 3.99 0 4.98 0 6 C0.99 6.33 1.98 6.66 3 7 C3 6.34 3 5.68 3 5 C2.34 4.67 1.68 4.34 1 4 C2.32 4 3.64 4 5 4 C5 5.32 5 6.64 5 8 C3.00045254 8.04254356 0.99958364 8.04080783 -1 8 C-2 7 -2 7 -2.1875 4.5625 C-2 2 -2 2 0 0 Z " fill="#ABABAB" transform="translate(269,365)"/>
<path d="M0 0 C1.65 0 3.3 0 5 0 C4.01 0.33 3.02 0.66 2 1 C2 1.66 2 2.32 2 3 C2.99 3 3.98 3 5 3 C5 3.66 5 4.32 5 5 C4.01 5 3.02 5 2 5 C2 5.66 2 6.32 2 7 C2.99 7.33 3.98 7.66 5 8 C3.35 8 1.7 8 0 8 C0 5.36 0 2.72 0 0 Z " fill="#A1A1A1" transform="translate(241,365)"/>
<path d="M0 0 C1.32 0.33 2.64 0.66 4 1 C3.67 2.32 3.34 3.64 3 5 C2.01 5 1.02 5 0 5 C0 3.35 0 1.7 0 0 Z " fill="#494949" transform="translate(243,339)"/>
<path d="M0 0 C1.32 0.33 2.64 0.66 4 1 C3.67 2.32 3.34 3.64 3 5 C2.01 5 1.02 5 0 5 C0 3.35 0 1.7 0 0 Z " fill="#404040" transform="translate(213,339)"/>
<path d="M0 0 C1.32 0 2.64 0 4 0 C3.67 1.65 3.34 3.3 3 5 C1.68 4.67 0.36 4.34 -1 4 C-0.67 2.68 -0.34 1.36 0 0 Z " fill="#2F2F2F" transform="translate(269,367)"/>
</svg>
